<?xml version="1.0" encoding="UTF-8"?>
<svg version="1.1" xmlns="http://www.w3.org/2000/svg" width="512" height="512">
<path d="M0 0 C0.33 0.99 0.66 1.98 1 3 C-0.49260344 5.668499 -2.05211168 8.15212334 -3.75 10.6875 C-9.50671749 19.53389213 -14.94884411 28.53772915 -20.3125 37.625 C-21.95930508 40.41165364 -23.60662253 43.19800429 -25.25390625 45.984375 C-25.65799713 46.66827805 -26.06208801 47.35218109 -26.47842407 48.05680847 C-30.20033841 54.3509578 -33.97287644 60.61382674 -37.75 66.875 C-45.34432496 79.48157944 -52.68980036 92.22713028 -60 105 C-59.20070068 104.7721582 -58.40140137 104.54431641 -57.57788086 104.30957031 C-45.35175411 100.93000423 -32.97366417 98.3504165 -20.5625 95.75 C-18.36645969 95.28682216 -16.17049553 94.82328311 -13.97460938 94.359375 C-8.65060929 93.23542256 -3.32569059 92.11591323 2 91 C1.27094733 94.24847943 0.3803442 96.08891589 -1.7734375 98.65234375 C-2.34537842 99.33965576 -2.91731934 100.02696777 -3.5065918 100.73510742 C-4.1231665 101.46189697 -4.73974121 102.18868652 -5.375 102.9375 C-6.00768799 103.69458252 -6.64037598 104.45166504 -7.29223633 105.23168945 C-11.50854125 110.26799372 -15.77094648 115.26551649 -20.03149414 120.2644043 C-23.69459039 124.58499653 -27.19085589 129.02358996 -30.66918945 133.4934082 C-34.90262701 138.91705839 -39.26997903 144.22445111 -43.65405273 149.52661133 C-51.26127767 158.72713595 -58.8030102 167.98168669 -66.25 177.3125 C-73.09289137 185.88397144 -80.07878399 194.32814595 -87.1875 202.6796875 C-89.03935507 204.85766345 -90.87133463 207.05000328 -92.6875 209.2578125 C-111.01364343 231.45562932 -130.20627663 247.22167357 -159.75 250.28515625 C-176.14210607 250.90525237 -191.5589818 244.18978634 -204 234 C-204.64710938 233.47921875 -205.29421875 232.9584375 -205.9609375 232.421875 C-215.17626522 224.16560853 -220.99996688 211.39604191 -222.29736328 199.20605469 C-222.43566245 196.37959634 -222.46763272 193.57958313 -222.4375 190.75 C-222.43065186 189.75145996 -222.42380371 188.75291992 -222.41674805 187.72412109 C-222.18124131 176.78143714 -220.53259239 163.55326886 -213 155 C-208.38681829 152.76041025 -203.41329225 151.88819406 -198.4296875 150.8359375 C-197.51164337 150.63900299 -196.59359924 150.44206848 -195.6477356 150.23916626 C-193.71336673 149.82527709 -191.77853014 149.41356866 -189.84326172 149.00390625 C-186.87733238 148.37549418 -183.91320841 147.73905357 -180.94921875 147.1015625 C-179.06781015 146.70004347 -177.186303 146.29898586 -175.3046875 145.8984375 C-174.4171579 145.7078476 -173.5296283 145.51725769 -172.61520386 145.32089233 C-171.79069733 145.14716095 -170.9661908 144.97342957 -170.11669922 144.79443359 C-169.03012527 144.56365616 -169.03012527 144.56365616 -167.92160034 144.32821655 C-166 144 -166 144 -163 144 C-163.70093135 148.47384579 -165.28209933 152.5005138 -166.9375 156.6875 C-171.4364204 168.39561405 -174.17179345 179.00776278 -169 191 C-166.31223979 195.83796838 -162.68530818 197.46259064 -157.640625 199.26953125 C-149.46993311 201.52976702 -142.5308826 199.59250992 -135 196 C-117.31124057 185.52924573 -109.16361505 163.7953952 -101 146 C-101.98395752 146.24234375 -102.96791504 146.4846875 -103.98168945 146.734375 C-107.63171871 147.63239202 -111.28284745 148.5258655 -114.93432617 149.41796875 C-116.51470832 149.80474947 -118.09478938 150.19276257 -119.67456055 150.58203125 C-121.9450202 151.14126479 -124.21652487 151.69606097 -126.48828125 152.25 C-127.19463211 152.42499023 -127.90098297 152.59998047 -128.6287384 152.78027344 C-131.49998465 153.47657194 -134.03280823 154 -137 154 C-135.64989912 147.56311448 -133.97364562 141.33088573 -132.015625 135.0546875 C-131.72338547 134.10696472 -131.43114594 133.15924194 -131.13005066 132.18280029 C-130.5007107 130.14236255 -129.86990349 128.10237687 -129.23776245 126.06280518 C-127.54235898 120.59123055 -125.85866222 115.11606204 -124.17578125 109.640625 C-123.82971329 108.51504181 -123.48364532 107.38945862 -123.12709045 106.22976685 C-118.62511148 91.55878649 -114.27344177 76.84307612 -109.92623901 62.12564087 C-109.13836654 59.47223403 -108.33912853 56.82245536 -107.53857422 54.17285156 C-106.47441423 50.64129157 -105.47630103 47.09819683 -104.51220703 43.53808594 C-104.02019621 41.80394012 -103.52785945 40.06988673 -103.03515625 38.3359375 C-102.73103065 37.13899765 -102.73103065 37.13899765 -102.42076111 35.9178772 C-101.27051656 31.97955073 -100.67752699 30.41655993 -97.08496094 28.20776367 C-95.73439133 27.76942661 -94.37039831 27.37173394 -93 27 C-92.11867905 26.72714172 -91.23735809 26.45428345 -90.32933044 26.17315674 C-87.09887381 25.18738932 -83.85520766 24.25999852 -80.60546875 23.33984375 C-79.3960965 22.99332764 -78.18672424 22.64681152 -76.94070435 22.28979492 C-74.35787476 21.55024446 -71.77465797 20.81227967 -69.19058228 20.07711792 C-65.17612606 18.93493753 -61.16341265 17.78672821 -57.15112305 16.63696289 C-56.4884269 16.44706756 -55.82573076 16.25717222 -55.14295292 16.06152248 C-53.80904986 15.67927361 -52.47515352 15.29700128 -51.14126396 14.91470528 C-49.15216084 14.34481676 -47.16289578 13.77549654 -45.17359924 13.20628357 C-34.53970032 10.16231556 -23.92045049 7.07061386 -13.3125 3.9375 C-12.60322357 3.72817841 -11.89394714 3.51885681 -11.16317749 3.30319214 C-7.4413938 2.20456718 -3.72027149 1.10373459 0 0 Z " fill="#FCB90C" transform="translate(363,174)"/>
<path d="M0 0 C4.419256 2.23657468 7.24371963 4.81979212 9.796875 9.16015625 C11.53608619 15.05414974 12.23628183 20.01730756 9.6796875 25.765625 C7.40668556 29.68400894 5.7280551 32.43520285 1.921875 34.97265625 C3.94376596 43.37652159 6.08682327 51.72496121 8.53515625 60.015625 C8.86638992 61.14244186 8.86638992 61.14244186 9.20431519 62.29202271 C10.11082974 65.37037191 11.02004476 68.44776055 11.94458008 71.52075195 C12.63082143 73.80782752 13.30281505 76.09870114 13.97265625 78.390625 C14.28968254 79.42499947 14.28968254 79.42499947 14.6131134 80.48027039 C15.72657855 84.33522191 16.10809074 87.10755832 14.921875 90.97265625 C13.0315374 91.6751262 11.13430672 92.35906474 9.234375 93.03515625 C8.17863281 93.41800781 7.12289062 93.80085938 6.03515625 94.1953125 C2.69549034 95.0291814 1.13117846 95.15147807 -2.078125 93.97265625 C-4.54296875 92.08203125 -4.54296875 92.08203125 -7.015625 89.72265625 C-7.87800781 88.91441406 -8.74039063 88.10617188 -9.62890625 87.2734375 C-10.43714844 86.51417969 -11.24539063 85.75492187 -12.078125 84.97265625 C-14.05261535 83.27077798 -16.05814761 81.62053254 -18.078125 79.97265625 C-20.18623885 86.08740222 -22.02954776 92.23333035 -23.71484375 98.4765625 C-24.21462244 100.28865228 -24.7153031 102.10049349 -25.21679688 103.91210938 C-25.99032436 106.71118253 -26.75915887 109.51108211 -27.51245117 112.31567383 C-30.84103284 124.67569779 -34.88444243 135.76985171 -41.078125 146.97265625 C-41.65908936 148.0613501 -42.24005371 149.15004395 -42.83862305 150.27172852 C-44.39703185 153.18441098 -45.98148888 156.08078981 -47.578125 158.97265625 C-48.3825 160.43832031 -48.3825 160.43832031 -49.203125 161.93359375 C-50.49213215 164.28142821 -51.78376772 166.62776851 -53.078125 168.97265625 C-53.738125 168.97265625 -54.398125 168.97265625 -55.078125 168.97265625 C-53.83566349 161.51174224 -52.20560057 154.25892303 -50.19921875 146.96875 C-49.60924644 144.79200497 -49.01932372 142.61524651 -48.42944336 140.43847656 C-47.96198196 138.72319763 -47.96198196 138.72319763 -47.4850769 136.9732666 C-45.80365216 130.79338094 -44.14432986 124.60755545 -42.484375 118.421875 C-42.30975676 117.77145863 -42.13513851 117.12104225 -41.95522881 116.45091629 C-38.01693641 101.77864945 -34.10089583 87.10054422 -30.26316929 72.40161419 C-29.29537044 68.69525619 -28.32271549 64.99034489 -27.33761597 61.2885437 C-26.40748744 57.79251184 -25.490957 54.29319739 -24.58477783 50.79088402 C-24.08606863 48.87749547 -23.57335117 46.96777541 -23.06030273 45.05818176 C-22.76768555 43.91588608 -22.47506836 42.77359039 -22.17358398 41.59667969 C-21.91238266 40.60198669 -21.65118134 39.6072937 -21.38206482 38.5824585 C-21.03222501 35.57853249 -21.42951025 34.46028027 -23.078125 31.97265625 C-23.738125 31.16828125 -24.398125 30.36390625 -25.078125 29.53515625 C-28.64438155 24.96589005 -29.55932412 21.0249914 -29.37890625 15.30859375 C-28.71899766 10.18358937 -26.91079252 6.49436575 -22.9140625 3.17578125 C-15.3025391 -2.03079828 -8.76254767 -3.65106153 0 0 Z M-15.640625 13.09765625 C-17.31104875 15.90277913 -17.31104875 15.90277913 -17.078125 19.09765625 C-16.26031599 21.96956281 -16.26031599 21.96956281 -14.515625 23.91015625 C-10.88826415 25.49131354 -7.82102246 25.13041691 -4.078125 23.97265625 C-1.86061592 22.43340985 -1.86061592 22.43340985 -1.078125 19.97265625 C-1.20385666 16.89223055 -1.61952851 14.78194417 -3.140625 12.09765625 C-7.62932404 9.49131487 -11.84169309 9.94732247 -15.640625 13.09765625 Z M-10.078125 41.97265625 C-11.14306086 45.71644586 -12.17595955 49.46834412 -13.203125 53.22265625 C-13.50605469 54.28613281 -13.80898438 55.34960938 -14.12109375 56.4453125 C-14.39824219 57.47011719 -14.67539062 58.49492187 -14.9609375 59.55078125 C-15.22277832 60.4934082 -15.48461914 61.43603516 -15.75439453 62.40722656 C-16.13174801 65.3975964 -15.75049981 66.50680432 -14.078125 68.97265625 C-11.59848257 71.33530242 -11.59848257 71.33530242 -8.703125 73.59765625 C-7.74664062 74.37367188 -6.79015625 75.1496875 -5.8046875 75.94921875 C-3.58831923 77.59403073 -1.58989712 78.86557185 0.921875 79.97265625 C-2.17884997 67.2414443 -5.59211864 54.60331656 -9.078125 41.97265625 C-9.408125 41.97265625 -9.738125 41.97265625 -10.078125 41.97265625 Z " fill="#30BFF5" transform="translate(282.078125,91.02734375)"/>
<path d="M0 0 C0.33 0.99 0.66 1.98 1 3 C-0.51171875 5.8125 -0.51171875 5.8125 -2.6875 9 C-3.39261719 10.051875 -4.09773437 11.10375 -4.82421875 12.1875 C-6.74962815 14.67635955 -8.38486927 16.29986986 -11 18 C-11 17.01 -11 16.02 -11 15 C-16.48137837 16.01827978 -21.73472038 17.13521347 -27 19 C-30.3262925 20.02347462 -33.66430868 21.00764411 -37 22 C-38.72924382 22.52057713 -40.45841216 23.04140503 -42.1875 23.5625 C-46.11587722 24.74162411 -50.0562691 25.87321974 -54 27 C-57.33599469 27.9911699 -60.66801855 28.99543246 -64 30 C-73.28211587 32.79848866 -73.28211587 32.79848866 -77.5625 34 C-79.2640625 34.495 -79.2640625 34.495 -81 35 C-82.13308594 35.25136719 -82.13308594 35.25136719 -83.2890625 35.5078125 C-87.93822319 36.68450526 -87.93822319 36.68450526 -91.42578125 39.796875 C-92.88285975 42.61565959 -93.85058092 45.21335005 -94.44360352 48.33544922 C-94.98071547 50.90764749 -95.70067686 53.28401818 -96.55859375 55.765625 C-96.86216797 56.65636719 -97.16574219 57.54710937 -97.47851562 58.46484375 C-98.11261491 60.30644371 -98.74801003 62.14759805 -99.38476562 63.98828125 C-101.08268451 68.97793718 -102.49121352 73.89255519 -103.5637207 79.05224609 C-104.11822317 81.52780329 -104.9441961 83.82971988 -105.875 86.1875 C-107.90440716 91.55901634 -109.47004551 97.00330082 -110.97265625 102.54296875 C-111.71638846 105.04564176 -112.50988174 107.40504933 -113.4453125 109.83203125 C-115.16409178 114.31634091 -116.48221763 118.88844468 -117.8125 123.5 C-119.75691307 130.09011658 -121.81212365 136.61408496 -124.1875 143.0625 C-124.5438855 144.0525 -124.5438855 144.0525 -124.9074707 145.0625 C-126.12600387 148.28805405 -127.14160928 150.96034431 -130 153 C-133.6875 153.6875 -133.6875 153.6875 -137 154 C-135.64989912 147.56311448 -133.97364562 141.33088573 -132.015625 135.0546875 C-131.72338547 134.10696472 -131.43114594 133.15924194 -131.13005066 132.18280029 C-130.5007107 130.14236255 -129.86990349 128.10237687 -129.23776245 126.06280518 C-127.54235898 120.59123055 -125.85866222 115.11606204 -124.17578125 109.640625 C-123.82971329 108.51504181 -123.48364532 107.38945862 -123.12709045 106.22976685 C-118.62511148 91.55878649 -114.27344177 76.84307612 -109.92623901 62.12564087 C-109.13836654 59.47223403 -108.33912853 56.82245536 -107.53857422 54.17285156 C-106.47441423 50.64129157 -105.47630103 47.09819683 -104.51220703 43.53808594 C-104.02019621 41.80394012 -103.52785945 40.06988673 -103.03515625 38.3359375 C-102.83240585 37.5379776 -102.62965546 36.7400177 -102.42076111 35.9178772 C-101.27051656 31.97955073 -100.67752699 30.41655993 -97.08496094 28.20776367 C-95.73439133 27.76942661 -94.37039831 27.37173394 -93 27 C-92.11867905 26.72714172 -91.23735809 26.45428345 -90.32933044 26.17315674 C-87.09887381 25.18738932 -83.85520766 24.25999852 -80.60546875 23.33984375 C-79.3960965 22.99332764 -78.18672424 22.64681152 -76.94070435 22.28979492 C-74.35787476 21.55024446 -71.77465797 20.81227967 -69.19058228 20.07711792 C-65.17612606 18.93493753 -61.16341265 17.78672821 -57.15112305 16.63696289 C-56.4884269 16.44706756 -55.82573076 16.25717222 -55.14295292 16.06152248 C-53.80904986 15.67927361 -52.47515352 15.29700128 -51.14126396 14.91470528 C-49.15216084 14.34481676 -47.16289578 13.77549654 -45.17359924 13.20628357 C-34.53970032 10.16231556 -23.92045049 7.07061386 -13.3125 3.9375 C-12.60322357 3.72817841 -11.89394714 3.51885681 -11.16317749 3.30319214 C-7.4413938 2.20456718 -3.72027149 1.10373459 0 0 Z " fill="#FCD825" transform="translate(363,174)"/>
<path d="M0 0 C12.63796402 6.1950804 21.1349756 23.40847034 25.5546875 36.0234375 C30.40442966 52.44998352 28.07191912 70.03425124 20.33984375 85.14453125 C15.45187927 93.56558733 9.12331257 103.14242653 0.58984375 108.26953125 C-2.91015625 108.20703125 -2.91015625 108.20703125 -5.41015625 107.26953125 C-6.1875 104.05859375 -6.1875 104.05859375 -6.41015625 100.26953125 C-4.6015625 97.85546875 -4.6015625 97.85546875 -1.97265625 95.64453125 C9.1428377 85.33970446 15.47680636 72.40187357 16.05834961 57.24682617 C16.27551886 40.16452848 10.58755905 26.15185357 -1.34765625 13.89453125 C-2.09317749 13.18091431 -2.09317749 13.18091431 -2.85375977 12.45288086 C-5.35310659 9.95703023 -6.3677365 8.59396382 -6.83203125 5.04296875 C-6.41015625 2.26953125 -6.41015625 2.26953125 -4.72265625 0.26953125 C-2.41015625 -0.73046875 -2.41015625 -0.73046875 0 0 Z " fill="#2EB8EF" transform="translate(336.41015625,56.73046875)"/>
<path d="M0 0 C2.0625 1.4375 2.0625 1.4375 3.0625 2.4375 C3.34765625 4.76953125 3.34765625 4.76953125 3.0625 7.4375 C1.55859375 9.32421875 1.55859375 9.32421875 -0.5 11.125 C-12.59887701 22.51846545 -19.81229584 37.61271355 -20.375 54.25 C-19.92794847 71.84050586 -12.82542194 84.11728999 -0.9375 96.4375 C-0.19628906 97.14003906 0.54492188 97.84257812 1.30859375 98.56640625 C3.0625 100.4375 3.0625 100.4375 3.5 103 C3.0625 105.4375 3.0625 105.4375 1.9375 107.3125 C0.0625 108.4375 0.0625 108.4375 -2.71875 108.3046875 C-12.02083717 105.79854265 -18.7207116 94.39915377 -23.28515625 86.51171875 C-31.63087729 70.98433705 -34.29378332 52.47629696 -29.375 35.25 C-25.67970238 25.52077234 -13.39348823 -2.56471051 0 0 Z " fill="#30BBF1" transform="translate(213.9375,56.5625)"/>
<path d="M0 0 C1.875 1.1875 1.875 1.1875 3 3 C2.62286089 7.02281719 1.48639677 8.96565639 -1.3125 11.8125 C-8.24211154 19.33973718 -10.41280601 26.73732065 -10.265625 36.84375 C-9.4982714 45.96171632 -5.23454929 51.41527603 1.26953125 57.578125 C3 60 3 60 2.94921875 63.171875 C2 66 2 66 -1 68 C-4.8020742 68.10561317 -6.7762281 66.5534035 -9.4375 64.0625 C-18.47989218 54.38970139 -22.70306449 43.12062181 -22.27734375 29.90625 C-21.26204151 19.26702652 -16.22470549 9.59661536 -8.375 2.3125 C-5.56043835 0.12900599 -3.6202278 -0.90505695 0 0 Z " fill="#2FB9F1" transform="translate(230,77)"/>
<path d="M0 0 C6.90727262 2.30242421 10.97741496 8.9512465 14.25 15.1875 C19.50129144 26.6979065 19.85168343 37.8739747 15.77734375 49.9375 C12.58592405 57.19153474 7.90574732 63.57038496 1.375 68.125 C-2.04833251 67.96577523 -3.1881237 67.5618763 -5.625 65.125 C-6.03874881 62.11546995 -6.01354523 60.67180102 -4.234375 58.16796875 C-3.62078125 57.55566406 -3.0071875 56.94335938 -2.375 56.3125 C4.60561527 48.83730672 6.77966418 41.44967762 6.64453125 31.3515625 C5.87790229 22.17423616 2.22050407 16.66414705 -4.04296875 10.203125 C-5.80726299 7.88558294 -6.10309963 6.97295113 -5.75 4.125 C-4.35351209 0.40103225 -3.87807146 0.18467007 0 0 Z " fill="#30BDF2" transform="translate(319.625,76.875)"/>
<path d="M0 0 C0.99 0.495 0.99 0.495 2 1 C1.35933594 1.70125 0.71867187 2.4025 0.05859375 3.125 C-1.23884766 4.548125 -1.23884766 4.548125 -2.5625 6 C-3.02213135 6.50402344 -3.4817627 7.00804687 -3.95532227 7.52734375 C-6.49239705 10.31683951 -8.98862444 13.13302373 -11.4375 16 C-28.10761692 34.95210508 -46.25124826 46.64110955 -71.75 49.28515625 C-85.92007152 49.82119514 -100.95567469 44.78525877 -112 36 C-109 35 -109 35 -105.55859375 36.546875 C-104.18168991 37.27522135 -102.80816109 38.00997245 -101.4375 38.75 C-88.63098266 45.32167198 -78.37517067 46.74825713 -64 46 C-63.67 45.67 -63.34 45.34 -63 45 C-60.32941149 44.85884839 -57.67567762 44.95752893 -55 45 C-55 44.34 -55 43.68 -55 43 C-53.741875 42.62875 -52.48375 42.2575 -51.1875 41.875 C-46.31213076 40.26528093 -42.01997239 37.95445782 -37.578125 35.40234375 C-35.10232482 34.0556585 -32.63558984 32.99071633 -30 32 C-30 31.34 -30 30.68 -30 30 C-29.319375 29.62875 -28.63875 29.2575 -27.9375 28.875 C-24.39390808 26.61313281 -22.18467156 23.88579316 -19.55078125 20.64453125 C-19.03902344 20.10183594 -18.52726562 19.55914062 -18 19 C-17.34 19 -16.68 19 -16 19 C-16 18.34 -16 17.68 -16 17 C-15.401875 16.566875 -14.80375 16.13375 -14.1875 15.6875 C-11.66465356 13.74130418 -10.60569949 11.72270783 -9 9 C-8.01 8.34 -7.02 7.68 -6 7 C-5.5359375 6.0409375 -5.5359375 6.0409375 -5.0625 5.0625 C-3.78774866 2.5879827 -2.29089504 1.52726336 0 0 Z " fill="#F58602" transform="translate(275,375)"/>
<path d="M0 0 C0.33 0 0.66 0 1 0 C1.18451025 9.41002278 1.18451025 9.41002278 0 14 C-0.66 14 -1.32 14 -2 14 C-2 15.98 -2 17.96 -2 20 C-1.01 20 -0.02 20 1 20 C1 18.68 1 17.36 1 16 C1.66 16 2.32 16 3 16 C3 14.68 3 13.36 3 12 C3.66 12 4.32 12 5 12 C5 10.68 5 9.36 5 8 C5.66 8 6.32 8 7 8 C7.33 6.68 7.66 5.36 8 4 C8.66 4.33 9.32 4.66 10 5 C7.90266535 9.0762898 5.80299815 13.15136615 3.70117188 17.2253418 C2.9866637 18.61107919 2.27279106 19.99714447 1.55957031 21.38354492 C0.53357672 23.37765921 -0.49470579 25.37057843 -1.5234375 27.36328125 C-1.84122162 27.98213699 -2.15900574 28.60099274 -2.48641968 29.23860168 C-3.88084335 31.93479154 -5.31344996 34.47017493 -7 37 C-7.66 37 -8.32 37 -9 37 C-7.64898552 28.61200855 -5.63609305 20.497473 -3.375 12.3125 C-2.88773438 10.52682617 -2.88773438 10.52682617 -2.390625 8.70507812 C-1.59787847 5.80222685 -0.80093812 2.90059965 0 0 Z " fill="#25A5E2" transform="translate(236,223)"/>
<path d="M0 0 C-3.44311285 2.29540857 -6.57379942 2.90559785 -10.5625 3.625 C-11.27615723 3.75543701 -11.98981445 3.88587402 -12.72509766 4.02026367 C-18.06139973 4.94420213 -23.6036993 5.89166342 -29 5 C-29.66 4.34 -30.32 3.68 -31 3 C-29.17662109 2.90912109 -29.17662109 2.90912109 -27.31640625 2.81640625 C-25.73175772 2.73201668 -24.14712298 2.6473679 -22.5625 2.5625 C-21.76005859 2.52318359 -20.95761719 2.48386719 -20.13085938 2.44335938 C-16.24760439 2.5945704 -16.24760439 2.5945704 -13 1 C-8.62512908 0.34376936 -4.43069564 -0.13845924 0 0 Z " fill="#E97301" transform="translate(225,419)"/>
<path d="M0 0 C4.77030266 4.77030266 5.20213695 12.92944301 5.25 19.375 C5.19065298 23.04462397 4.80725917 26.41941498 4 30 C3.67 30 3.34 30 3 30 C2.67 22.41 2.34 14.82 2 7 C1.34 7 0.68 7 0 7 C0 4.69 0 2.38 0 0 Z " fill="#1877C3" transform="translate(333,92)"/>
<path d="M0 0 C-0.57835931 3.82943966 -2.31366131 5.84938662 -4.875 8.6875 C-5.57367188 9.47511719 -6.27234375 10.26273438 -6.9921875 11.07421875 C-9 13 -9 13 -12 14 C-10.63350805 9.99304703 -8.82896473 7.3232826 -6 4.1875 C-4.948125 3.00220703 -4.948125 3.00220703 -3.875 1.79296875 C-2 0 -2 0 0 0 Z " fill="#29ACE7" transform="translate(225,78)"/>
<path d="M0 0 C-3.86723631 1.26582219 -7.73151262 1.1118765 -11.75 1.0625 C-12.44738281 1.05798828 -13.14476562 1.05347656 -13.86328125 1.04882812 C-15.57555803 1.0371002 -17.28779033 1.01916653 -19 1 C-13.7581208 -4.2418792 -6.30014818 -2.05719124 0 0 Z " fill="#2193D5" transform="translate(283,91)"/>
<path d="M0 0 C5.96661033 1.98887011 10.13000945 8.59766484 13 14 C7.53272028 11.55537933 3.1952702 7.44250866 0.5625 2.0625 C0.376875 1.381875 0.19125 0.70125 0 0 Z " fill="#F79002" transform="translate(150,396)"/>
<path d="M0 0 C2 3 2 3 2 7 C1.34 7 0.68 7 0 7 C0 9.31 0 11.62 0 14 C-0.66 14 -1.32 14 -2 14 C-2 14.99 -2 15.98 -2 17 C-2.66 17 -3.32 17 -4 17 C-2.68 11.39 -1.36 5.78 0 0 Z " fill="#2091D2" transform="translate(253,158)"/>
<path d="M0 0 C0.66 0.33 1.32 0.66 2 1 C0.55746343 4.36591866 -1.33264727 6.51047079 -4 9 C-4.99 8.67 -5.98 8.34 -7 8 C-4.69 5.36 -2.38 2.72 0 0 Z " fill="#2492CD" transform="translate(206,59)"/>
<path d="M0 0 C0.33 0 0.66 0 1 0 C0.979375 1.11375 0.95875 2.2275 0.9375 3.375 C0.73619282 6.83215921 0.73619282 6.83215921 2 9 C0.6875 11.625 0.6875 11.625 -1 14 C-1.66 14 -2.32 14 -3 14 C-2.69024532 12.22868439 -2.37709575 10.45796222 -2.0625 8.6875 C-1.88847656 7.70136719 -1.71445313 6.71523437 -1.53515625 5.69921875 C-1 3 -1 3 0 0 Z " fill="#3294CE" transform="translate(230,246)"/>
<path d="M0 0 C0.33 0 0.66 0 1 0 C0.67 4.62 0.34 9.24 0 14 C-0.66 14 -1.32 14 -2 14 C-2.33 14.99 -2.66 15.98 -3 17 C-4.6168484 13.76630321 -3.00851816 10.69371743 -2.0625 7.375 C-1.76956055 6.31539062 -1.76956055 6.31539062 -1.47070312 5.234375 C-0.98685508 3.48780156 -0.49424877 1.74365876 0 0 Z " fill="#1B84CF" transform="translate(259,135)"/>
<path d="M0 0 C0.33 0.99 0.66 1.98 1 3 C0.01 3.66 -0.98 4.32 -2 5 C-2 4.34 -2 3.68 -2 3 C-2.680625 3.165 -3.36125 3.33 -4.0625 3.5 C-7.4164822 4.07089059 -10.60389805 4.06659023 -14 4 C-14 3.67 -14 3.34 -14 3 C-7.07 1.515 -7.07 1.515 0 0 Z " fill="#F69D03" transform="translate(364,265)"/>
<path d="M0 0 C0.99 0.33 1.98 0.66 3 1 C3 3.31 3 5.62 3 8 C3.66 8 4.32 8 5 8 C4.67 9.98 4.34 11.96 4 14 C2.30566082 10.9530371 1.50532888 8.17178534 0.875 4.75 C0.70742188 3.85796875 0.53984375 2.9659375 0.3671875 2.046875 C0.18542969 1.03367188 0.18542969 1.03367188 0 0 Z " fill="#1F8CC8" transform="translate(274,138)"/>
<path d="M0 0 C0.33 0.66 0.66 1.32 1 2 C1.66 2 2.32 2 3 2 C3.66 6.29 4.32 10.58 5 15 C1.28126047 10.04168063 0 6.1841245 0 0 Z " fill="#208AC8" transform="translate(184,123)"/>
<path d="M0 0 C0.33 0 0.66 0 1 0 C1 1.65 1 3.3 1 5 C1.66 5 2.32 5 3 5 C2.67 6.98 2.34 8.96 2 11 C1.01 11.33 0.02 11.66 -1 12 C-0.67 8.04 -0.34 4.08 0 0 Z " fill="#2AB3EB" transform="translate(231,242)"/>
<path d="M0 0 C0.33 0.66 0.66 1.32 1 2 C0.00390625 3.9453125 0.00390625 3.9453125 -1.4375 6.125 C-1.91058594 6.84945312 -2.38367188 7.57390625 -2.87109375 8.3203125 C-3.24363281 8.87460938 -3.61617188 9.42890625 -4 10 C-4.99 9.67 -5.98 9.34 -7 9 C-5.7260411 6.96166576 -4.38938077 4.96147874 -3 3 C-2.34 3 -1.68 3 -1 3 C-0.67 2.01 -0.34 1.02 0 0 Z " fill="#28A6E4" transform="translate(291,114)"/>
<path d="M0 0 C0.66 0.33 1.32 0.66 2 1 C-0.64 3.97 -3.28 6.94 -6 10 C-6 6.80366562 -5.66189865 5.65903784 -4 3 C-1.875 1.25 -1.875 1.25 0 0 Z " fill="#F48D02" transform="translate(332,305)"/>
<path d="M0 0 C0.33 0 0.66 0 1 0 C1.10884119 1.41493551 1.18597617 2.83232943 1.25 4.25 C1.29640625 5.03890625 1.3428125 5.8278125 1.390625 6.640625 C1 9 1 9 -3 13 C-2.01 8.71 -1.02 4.42 0 0 Z " fill="#1B88CB" transform="translate(236,223)"/>
<path d="M0 0 C-1.1875 1.5625 -1.1875 1.5625 -3 3 C-5.625 2.8125 -5.625 2.8125 -8 2 C-8.33 1.34 -8.66 0.68 -9 0 C-3.375 -1.125 -3.375 -1.125 0 0 Z " fill="#259CD8" transform="translate(324,142)"/>
<path d="M0 0 C1.60080151 4.00200378 0.29279692 7.04556236 -1 11 C-1.33 11 -1.66 11 -2 11 C-2 7.7 -2 4.4 -2 1 C-1.34 0.67 -0.68 0.34 0 0 Z " fill="#1C86C4" transform="translate(256,191)"/>
<path d="M0 0 C2.95183101 2.95183101 3.08663988 5.95511947 4 10 C3.34 9.67 2.68 9.34 2 9 C2 8.34 2 7.68 2 7 C1.34 7 0.68 7 0 7 C0 4.69 0 2.38 0 0 Z " fill="#1C84C4" transform="translate(333,92)"/>
<path d="M0 0 C0 0.99 0 1.98 0 3 C-2 4.6875 -2 4.6875 -4 6 C-4 5.01 -4 4.02 -4 3 C-4.66 2.67 -5.32 2.34 -6 2 C-4.02 1.34 -2.04 0.68 0 0 Z " fill="#FCD613" transform="translate(356,186)"/>
</svg>
